<svg width="20" height="20" viewBox="0 0 20 20" fill="none" xmlns="http://www.w3.org/2000/svg">
<path d="M13.0152 9.27363C14.2949 8.34031 15.1283 6.82984 15.1283 5.1282C15.1283 2.30051 12.8278 0 10.0001 0C7.1724 0 4.87189 2.30051 4.87189 5.1282C4.87189 6.82984 5.70521 8.34031 6.98498 9.27363C3.80373 10.491 1.53857 13.5754 1.53857 17.1795C1.53857 18.7347 2.80385 20 4.35908 20H15.6411C17.1963 20 18.4616 18.7347 18.4616 17.1795C18.4616 13.5754 16.1965 10.491 13.0152 9.27363ZM6.41037 5.1282C6.41037 3.14883 8.02072 1.53848 10.0001 1.53848C11.9795 1.53848 13.5898 3.14883 13.5898 5.1282C13.5898 7.10758 11.9795 8.71797 10.0001 8.71797C8.02072 8.71797 6.41037 7.10758 6.41037 5.1282ZM15.6411 18.4615H4.35908C3.65217 18.4615 3.07705 17.8864 3.07705 17.1795C3.07705 13.362 6.18268 10.2564 10.0001 10.2564C13.8176 10.2564 16.9232 13.362 16.9232 17.1795C16.9232 17.8864 16.3481 18.4615 15.6411 18.4615Z" fill="#273142" fill-opacity="0.9"/>
</svg>
