<svg width="20" height="20" viewBox="0 0 20 20" fill="none" xmlns="http://www.w3.org/2000/svg">
<g clip-path="url(#clip0_1_2039)">
<path d="M19.4634 4.25636C19.4634 4.00263 19.3101 3.77401 19.0754 3.67757L10.2376 0.0469287C10.0853 -0.0156429 9.91446 -0.0156429 9.76209 0.0469287L0.924321 3.67757C0.689638 3.77397 0.536377 4.00263 0.536377 4.25636V15.7436C0.536377 15.9974 0.689599 16.226 0.924321 16.3224L9.76209 19.9531C9.91281 20.015 10.0822 20.0163 10.2369 19.953C10.2444 19.9505 9.9098 20.0878 19.0754 16.3224C19.3101 16.226 19.4634 15.9974 19.4634 15.7436V4.25636ZM9.99987 7.26316L6.74348 5.92541L13.7809 2.85546L17.255 4.28268L9.99987 7.26316ZM1.78781 5.24248L4.59731 6.39666V9.65288C4.59731 9.99844 4.87748 10.2786 5.22303 10.2786C5.56858 10.2786 5.84875 9.99844 5.84875 9.65288V6.91076L9.37415 8.35902V18.4408L1.78781 15.3242V5.24248ZM9.99987 1.30215L12.169 2.19325L5.1316 5.26321L2.74469 4.28264L9.99987 1.30215ZM10.6256 8.35902L18.2119 5.24248V15.3242L10.6256 18.4408V8.35902Z" fill="#3D4655"/>
</g>
<defs>
<clipPath id="clip0_1_2039">
<rect width="20" height="20" fill="white"/>
</clipPath>
</defs>
</svg>
