<svg width="20" height="20" viewBox="0 0 20 20" fill="none" xmlns="http://www.w3.org/2000/svg">
<g clip-path="url(#clip0_1_2091)">
<path d="M15.919 2.45508C14.3436 0.872921 12.2448 0.00157482 10.0091 0.00157482H9.99948C5.49761 -0.0905673 1.54807 3.87408 1.64076 8.37432C1.7586 11.552 4.81562 15.5877 7.19624 18.6881C7.89537 19.5233 8.91405 20 10.0084 20C11.1412 20 12.1929 19.4896 12.8939 18.5996C14.6599 16.405 18.4734 11.1265 18.3582 8.37424C18.3583 6.13701 17.492 4.03489 15.919 2.45508ZM11.6665 17.6329C10.8592 18.6978 9.16091 18.6997 8.35327 17.6347C5.12525 13.5243 3.20307 10.1012 3.20307 8.37428C3.20307 4.61907 6.25193 1.56401 9.99948 1.56401H10.0091C13.7514 1.56401 16.7959 4.61911 16.7959 8.37428C16.7959 10.12 14.9263 13.4946 11.6665 17.6329ZM10.0434 11.6803C8.21269 11.6803 6.7233 10.191 6.7233 8.36026C6.90567 3.95572 13.1818 3.95701 13.3635 8.3603C13.3635 10.191 11.8741 11.6803 10.0434 11.6803ZM10.0434 6.60257C9.0742 6.60257 8.2857 7.39107 8.2857 8.36026C8.38225 10.6921 11.7049 10.6914 11.8011 8.36026C11.8011 7.39107 11.0126 6.60257 10.0434 6.60257Z" fill="#007878"/>
</g>
<defs>
<clipPath id="clip0_1_2091">
<rect width="20" height="20" fill="white"/>
</clipPath>
</defs>
</svg>
