<svg width="12" height="12" viewBox="0 0 12 12" fill="none" xmlns="http://www.w3.org/2000/svg">
<g clip-path="url(#clip0_1_259)">
<path d="M11.8248 1.76937C11.5905 1.53505 11.2106 1.53505 10.9762 1.76937L3.78786 8.95782L1.02477 6.19473C0.790461 5.9604 0.410586 5.96042 0.176234 6.19473C-0.0580938 6.42903 -0.0580938 6.80891 0.176234 7.04323L3.36359 10.2305C3.59783 10.4649 3.97798 10.4647 4.21212 10.2305L11.8248 2.61791C12.0591 2.3836 12.0591 2.0037 11.8248 1.76937Z" fill="white"/>
<path d="M11.8248 1.76937C11.5905 1.53505 11.2106 1.53505 10.9762 1.76937L3.78786 8.95782L1.02477 6.19473C0.790461 5.9604 0.410586 5.96042 0.176234 6.19473C-0.0580938 6.42903 -0.0580938 6.80891 0.176234 7.04323L3.36359 10.2305C3.59783 10.4649 3.97798 10.4647 4.21212 10.2305L11.8248 2.61791C12.0591 2.3836 12.0591 2.0037 11.8248 1.76937Z" stroke="white"/>
</g>
<defs>
<clipPath id="clip0_1_259">
<rect width="12" height="12" fill="white"/>
</clipPath>
</defs>
</svg>
